<svg width="160" height="160" viewBox="0 0 160 160" fill="none" xmlns="http://www.w3.org/2000/svg">
<path d="M33.75 0H40.9375V7.1875H47.8125V0H55V21.5625H47.8125V14.375H41.25V21.5625H33.75V0ZM64.375 7.1875H58.125V0H77.8125V7.1875H71.5625V21.5625H64.375V7.1875ZM81.25 0H88.75L93.125 7.5L97.8125 0H105.312V21.5625H98.125V10.9375L93.125 18.75L88.125 10.9375V21.5625H80.9375L81.25 0ZM109.062 0H116.25V14.375H126.25V21.5625H109.062" fill="black"/>
<path d="M33.75 147.188L23.4375 31.5625H136.562L126.25 147.188L80 160" fill="#E44D26"/>
<path d="M80 150.312V40.9375H126.25L117.5 139.688" fill="#F16529"/>
<path d="M44.375 55H80V69.375H60L61.25 83.75H80V98.125H48.125L44.375 55ZM48.75 105H63.125L64.0625 116.562L80 120.625V135.625L50.9375 127.5" fill="#EBEBEB"/>
<path d="M115.625 55H80V69.375H114.062L115.625 55ZM112.812 83.75H80V98.125H97.5L95.625 116.562L80 120.625V135.312L109.062 127.5" fill="white"/>
</svg>
