<svg width="100%" height="100%" viewBox="0 0 512 512" xmlns="http://www.w3.org/2000/svg"><path d="M108 0h23v23h22V0h23v69h-23V46h-21v23h-24m98-46h-20V0h63v23h-20v46h-23m54-69h24l14 24 15-24h24v69h-23V35l-16 25-16-25v34h-23m90-69h23v46h32v23h-55"/><path d="M108 471 75 101h362l-33 370-148 41" fill="#e44d26"/><path d="M256 481V131h148l-28 316" fill="#f16529"/><path d="M142 176h114v46h-64l4 46h60v46H154m2 22h46l3 37 51 13v48l-93-26" fill="#ebebeb"/><path d="M370 176H256v46h109m-4 46H256v46h56l-6 59-50 13v47l93-25" fill="#fff"/></svg>