<svg width="100%" height="100%" viewBox="0 0 2546.8 901.7" xml:space="preserve" xmlns="http://www.w3.org/2000/svg"><style>.st0{stroke:#fff;stroke-miterlimit:10}.st0,.st1{fill:current}</style><path class="st0" d="m97 393 21-3 53-5-72-80c-22-24-34-55-34-88H4c0 48 18 93 50 129l43 47zM285 510l-16 2-58 6 73 79c21 24 34 56 34 88h60c0-47-18-93-50-128l-43-47z"/><path class="st1" d="M194 902a77 77 0 0 1-30-147v-29c0-31-23-58-54-61l-9-2c-50-6-89-42-99-91s12-98 55-123c20-12 42-19 65-21l138-13c14-1 27-5 40-12 24-15 29-40 26-58s-18-39-47-43l-9-1c-61-8-108-60-108-122v-33a77 77 0 1 1 61 1v32c0 31 24 57 54 61l10 1c50 6 88 42 98 92s-11 97-55 123c-20 11-41 18-64 20l-139 13c-14 2-27 6-39 13-25 14-30 39-26 57s18 40 46 43l9 2c62 7 108 60 108 122v29a77 77 0 0 1-31 147z"/><path class="st1" d="M194 0a76 76 0 0 1 29 147v32c0 31 23 58 54 62l10 1c49 6 88 42 98 91s-12 97-55 122c-20 12-42 19-64 21l-139 13c-14 1-27 5-39 13a53 53 0 0 0-27 58c4 18 18 40 47 43l9 1c62 8 108 60 108 122v30a76 76 0 1 1-60-1v-29c0-31-24-58-55-62l-9-1c-50-6-89-42-99-91s12-98 56-123c19-11 41-18 64-20l138-13c14-1 27-6 40-13 25-14 30-39 26-58s-18-40-47-43l-9-2c-61-7-107-60-107-121v-33A76 76 0 0 1 194 0m0-1a77 77 0 0 0-32 148v32c0 62 46 115 108 122l9 2c28 3 42 24 46 42s-1 43-26 57c-12 7-25 11-39 13l-138 13c-23 2-45 9-65 21-44 25-66 73-56 123s49 86 100 92l9 1c30 4 53 30 53 61v28a77 77 0 1 0 63 1v-29c0-62-47-115-109-123l-9-1c-28-3-42-24-46-42s1-43 26-58c12-7 25-11 39-12l139-13c23-2 44-9 64-21 44-25 66-74 56-123-10-50-49-86-99-92l-10-1c-30-4-53-30-53-61v-32A77 77 0 0 0 194-1zM1427 675h-203c-70 0-127-57-127-127V363c0-70 57-127 127-127h108c70 0 127 57 127 127v29c0 54-44 97-98 97h-206v59c0 38 31 69 69 69h202v58zm-272-244h207c21 0 39-17 39-39v-29c0-38-31-69-69-69h-108c-38 0-69 31-69 69v68zM2363 273h58v395h-58zM2172 675h-109c-70 0-126-57-126-127V363c0-70 56-127 126-127h108c70 0 127 57 127 127v185c0 70-57 127-127 127zm-109-381c-38 0-68 31-68 69v185c0 38 30 69 68 69h108c38 0 69-31 69-68V363c0-38-31-69-69-69h-108zM2489 147h58v521h-58zM2363 149h58v54h-58zM1747 680h-108c-70 0-127-57-127-127V367c0-69 57-126 127-126h108c70 0 127 57 127 126v29h-58v-29c0-37-31-68-69-68h-108c-38 0-69 31-69 68v186c0 38 31 69 69 69h108c38 0 69-31 69-69v-29h58v29c0 70-57 127-127 127zM1012 685h-58v-20c0-34-13-68-37-93l-1-1-55-69 46-36 53 67c33 36 52 83 52 132v20z"/><path class="st1" d="M710 685h-58l1-369c1-43 36-77 79-77l83-1 85-1c20 1 56 5 86 35 20 19 32 46 34 76 3 28-3 56-17 79-24 40-64 53-80 57l-41 11-94 23-77 19-1 148zm21-388c-10 0-19 8-19 19l-1 162 63-16 94-24 41-10c9-2 31-10 44-31 16-26 12-64-8-84a67 67 0 0 0-45-17h-84l-84 1z"/></svg>
