<svg width="160" height="160" viewBox="0 0 160 160" fill="none" xmlns="http://www.w3.org/2000/svg">
<g clip-path="url(#clip0_23_40)">
<path d="M6.09409 76.3656L7.41339 76.1772L10.7431 75.863L6.21974 70.8371C4.83761 69.3294 4.08372 67.3818 4.08372 65.3086H0.251465C0.251465 68.3242 1.3823 71.1513 3.39266 73.4129L6.09409 76.3656ZM17.905 83.716L16.8998 83.8417L13.256 84.2186L17.8422 89.1817C19.1615 90.6895 19.9782 92.6999 19.9782 94.7102H23.7476C23.7476 91.7575 22.6168 88.8676 20.6064 86.6688L17.905 83.716Z" fill="black" stroke="white" stroke-width="0.000196325" stroke-miterlimit="10"/>
<path d="M12.1878 108.343C11.0949 108.314 10.0439 107.916 9.20625 107.214C8.36856 106.511 7.79355 105.546 7.57494 104.475C7.35633 103.403 7.50702 102.29 8.00244 101.315C8.49786 100.341 9.3088 99.5625 10.3031 99.1079V97.286C10.3031 95.3385 8.8581 93.6422 6.91056 93.4537L6.34515 93.3281C3.20395 92.9511 0.753817 90.6895 0.125578 87.6111C-0.502661 84.5327 0.879465 81.4544 3.58089 79.8838C4.83737 79.1299 6.2195 78.6901 7.66445 78.5645L16.3342 77.7478C17.2137 77.6849 18.0304 77.4336 18.8471 76.9939C20.3549 76.0515 20.669 74.4809 20.4805 73.3501C20.2921 72.2192 19.3497 70.8999 17.5278 70.6487L16.9624 70.5858C13.1301 70.0832 10.1774 66.8164 10.1774 62.9213V60.8481C9.16275 60.3905 8.33696 59.5969 7.8393 58.6012C7.34165 57.6056 7.20258 56.4688 7.44555 55.3825C7.68852 54.2963 8.29867 53.327 9.17308 52.6383C10.0475 51.9496 11.1327 51.5834 12.2456 51.6017C13.3586 51.6199 14.4312 52.0214 15.2826 52.7385C16.1339 53.4555 16.712 54.4442 16.9192 55.5378C17.1264 56.6315 16.9502 57.7631 16.4202 58.7419C15.8901 59.7207 15.0388 60.4868 14.0097 60.9109V62.9213C14.0097 64.8688 15.5174 66.5023 17.4022 66.7536L18.0304 66.8164C21.1716 67.1933 23.5589 69.455 24.1871 72.5962C24.8154 75.7374 23.4961 78.6901 20.7318 80.3235C19.4754 81.0146 18.156 81.4544 16.7111 81.58L7.97857 82.3967C7.09903 82.5224 6.28232 82.7737 5.52844 83.2134C3.95784 84.093 3.64372 85.6636 3.89501 86.7944C4.14631 87.9252 5.02585 89.3074 6.78491 89.4958L7.35033 89.6215C11.2454 90.0612 14.1353 93.3909 14.1353 97.286V99.1079C15.1338 99.5652 15.9469 100.349 16.4411 101.329C16.9352 102.31 17.081 103.43 16.8544 104.504C16.6278 105.579 16.0423 106.544 15.1942 107.242C14.3461 107.94 13.2859 108.328 12.1878 108.343Z" fill="black"/>
<path d="M12.1878 51.6758C13.3145 51.6468 14.4151 52.0173 15.2949 52.7217C16.1746 53.4261 16.7769 54.419 16.995 55.5248C17.2131 56.6305 17.0331 57.7777 16.4868 58.7634C15.9404 59.7492 15.063 60.5099 14.0097 60.911V62.9213C14.0097 64.8689 15.4547 66.5651 17.4022 66.8164L18.0305 66.8792C21.1088 67.2562 23.559 69.5178 24.1872 72.5962C24.8154 75.6746 23.4333 78.6901 20.7319 80.2607C19.4754 81.0146 18.0933 81.4544 16.7112 81.58L7.97863 82.3967C7.0991 82.4596 6.28239 82.7109 5.5285 83.2134C4.88739 83.5531 4.37476 84.0928 4.06857 84.7505C3.76239 85.4083 3.67941 86.148 3.83225 86.8572C4.08355 87.9881 4.96309 89.3702 6.78498 89.5587L7.35039 89.6215C11.2455 90.1241 14.1354 93.3909 14.1354 97.286V99.1707C15.138 99.6215 15.9543 100.404 16.4466 101.387C16.9389 102.37 17.077 103.493 16.8375 104.566C16.5981 105.638 15.9958 106.596 15.1323 107.276C14.2688 107.956 13.1971 108.318 12.098 108.299C10.9989 108.281 9.93979 107.884 9.09946 107.175C8.25914 106.467 7.68908 105.49 7.48552 104.41C7.28196 103.329 7.45737 102.212 7.98214 101.246C8.50691 100.28 9.34889 99.525 10.3659 99.1079V97.286C10.3659 95.3385 8.85817 93.6422 6.91063 93.3909L6.34521 93.3281C3.20402 92.9512 0.753882 90.6895 0.125642 87.6111C-0.502597 84.5328 0.879529 81.4544 3.64378 79.8838C4.83744 79.1927 6.21956 78.753 7.66451 78.6273L16.3342 77.8106C17.2138 77.7478 18.0305 77.4336 18.8472 76.9939C20.4178 76.1143 20.7319 74.5437 20.4806 73.3501C20.2293 72.1564 19.3498 70.8371 17.5279 70.6487L16.9625 70.523C13.1302 70.0832 10.2403 66.7536 10.2403 62.9213V60.8481C9.21813 60.4165 8.37822 59.6423 7.86486 58.6587C7.3515 57.675 7.19675 56.5433 7.4272 55.4579C7.65766 54.3726 8.25892 53.4013 9.12769 52.7112C9.99645 52.021 11.0785 51.6549 12.1878 51.6758ZM12.1878 51.613C11.0583 51.5795 9.95274 51.9425 9.0629 52.639C8.17307 53.3355 7.55514 54.3215 7.31633 55.426C7.07752 56.5305 7.23291 57.6837 7.75553 58.6856C8.27815 59.6875 9.13502 60.4748 10.1775 60.911V62.9213C10.1775 66.8164 13.0674 70.1461 16.9625 70.5858L17.5279 70.7115C19.2869 70.9 20.1665 72.2193 20.4178 73.3501C20.6691 74.4809 20.3549 76.0515 18.7843 76.9311C18.0305 77.3708 17.2138 77.6221 16.3342 77.7478L7.66451 78.5645C6.21956 78.6901 4.83744 79.1299 3.58096 79.8838C0.816705 81.4544 -0.565421 84.4699 0.0628184 87.6111C0.691058 90.7523 3.14119 93.014 6.34521 93.3909L6.91063 93.4538C8.79534 93.705 10.2403 95.3385 10.2403 97.286V99.0451C9.22294 99.482 8.38625 100.255 7.86993 101.234C7.35361 102.214 7.18891 103.341 7.40333 104.427C7.61774 105.513 8.19829 106.493 9.04805 107.203C9.89782 107.912 10.9654 108.309 12.0724 108.327C13.1795 108.344 14.2591 107.982 15.1309 107.299C16.0028 106.617 16.6142 105.656 16.8629 104.577C17.1117 103.498 16.9829 102.366 16.4979 101.371C16.0129 100.376 15.2012 99.5769 14.1982 99.1079V97.286C14.1982 93.3909 11.2455 90.0613 7.35039 89.5587L6.78498 89.4958C5.02591 89.3074 4.14637 87.9881 3.89508 86.8572C3.64378 85.7264 3.9579 84.1558 5.5285 83.2134C6.28239 82.7737 7.0991 82.5224 7.97863 82.4596L16.7112 81.6429C18.1561 81.5172 19.4754 81.0774 20.7319 80.3235C23.4961 78.753 24.8783 75.6746 24.25 72.5962C23.6218 69.455 21.1717 67.1933 18.0305 66.8164L17.4022 66.7536C15.5175 66.5023 14.0726 64.8689 14.0726 62.9213V60.911C15.1037 60.4782 15.9531 59.7015 16.4762 58.713C16.9992 57.7246 17.1637 56.5854 16.9415 55.4894C16.7193 54.3934 16.1243 53.4082 15.2576 52.7015C14.3909 51.9947 13.3061 51.6101 12.1878 51.613ZM89.6497 94.082H76.8965C72.4988 94.082 68.9178 90.501 68.9178 86.1034V74.4809C68.9178 70.0832 72.4988 66.5023 76.8965 66.5023H83.6815C88.0791 66.5023 91.6601 70.0832 91.6601 74.4809V76.3028C91.6601 79.6953 88.8959 82.3967 85.5034 82.3967H72.5616V86.1034C72.5616 88.4907 74.5092 90.4382 76.8965 90.4382H89.5869V94.082H89.6497ZM72.5616 78.753H85.5662C86.8855 78.753 88.0163 77.6849 88.0163 76.3028V74.4809C88.0163 72.0936 86.0688 70.1461 83.6815 70.1461H76.8965C74.5092 70.1461 72.5616 72.0936 72.5616 74.4809V78.753ZM148.453 68.8268H152.097V93.6422H148.453V68.8268ZM136.454 94.082H129.606C125.208 94.082 121.69 90.501 121.69 86.1034V74.4809C121.69 70.0832 125.208 66.5023 129.606 66.5023H136.391C140.788 66.5023 144.369 70.0832 144.369 74.4809V86.1034C144.369 90.501 140.788 94.082 136.391 94.082H136.454ZM129.606 70.1461C127.218 70.1461 125.334 72.0936 125.334 74.4809V86.1034C125.334 88.4907 127.218 90.4382 129.606 90.4382H136.391C138.778 90.4382 140.726 88.4907 140.726 86.1662V74.4809C140.726 72.0936 138.778 70.1461 136.391 70.1461H129.606ZM156.369 60.911H160.013V93.6422H156.369V60.911ZM148.453 61.0366H152.097V64.4291H148.453V61.0366ZM109.753 94.3961H102.968C98.5707 94.3961 94.9898 90.8151 94.9898 86.4175V74.7322C94.9898 70.3974 98.5707 66.8164 102.968 66.8164H109.753C114.151 66.8164 117.732 70.3974 117.732 74.7322V76.5541H114.088V74.7322C114.088 72.4077 112.141 70.4602 109.753 70.4602H102.968C100.581 70.4602 98.6336 72.4077 98.6336 74.7322V86.4175C98.6336 88.8048 100.581 90.7523 102.968 90.7523H109.753C112.141 90.7523 114.088 88.8048 114.088 86.4175V84.5956H117.732V86.4175C117.732 90.8151 114.151 94.3961 109.753 94.3961ZM63.5778 94.7102H59.934V93.4538C59.934 91.3177 59.1173 89.1817 57.6095 87.6111L57.5467 87.5483L54.0914 83.2134L56.9813 80.9518L60.311 85.161C62.3842 87.4227 63.5778 90.3754 63.5778 93.4538V94.7102Z" fill="black"/>
<path d="M44.605 94.7102H40.9612L41.024 71.5282C41.0868 68.8268 43.2857 66.6907 45.9871 66.6907L51.2015 66.6279L56.5415 66.5651C57.798 66.6279 60.0597 66.8792 61.9444 68.7639C63.2009 69.9576 63.9547 71.6538 64.0804 73.5386C64.2689 75.2976 63.8919 77.0567 63.0124 78.5017C61.5046 81.0146 58.9916 81.8313 57.9865 82.0826L55.4107 82.7737L49.5052 84.2186L44.6678 85.4123L44.605 94.7102ZM45.9243 70.3345C45.296 70.3345 44.7306 70.8371 44.7306 71.5282L44.6678 81.7057L48.6257 80.7005L54.5311 79.1927L57.1069 78.5645C57.6723 78.4388 59.0545 77.9362 59.8712 76.6169C60.8764 74.9835 60.6251 72.5962 59.3686 71.3397C58.5909 70.646 57.5836 70.2655 56.5415 70.2717H51.2643L45.9871 70.3345H45.9243Z" fill="black"/>
</g>
<defs>
<clipPath id="clip0_23_40">
<rect width="160" height="160" fill="white"/>
</clipPath>
</defs>
</svg>
