<svg width="160" height="160" viewBox="0 0 160 160" fill="none" xmlns="http://www.w3.org/2000/svg">
<path d="M110.625 110C116.875 109.375 121.25 104.375 121.25 98.125C121.25 91.875 115.625 86.875 109.375 86.875C107.1 86.8043 104.857 87.4254 102.942 88.6562C101.027 89.8871 99.5311 91.6698 98.6509 93.7689C97.7706 95.868 97.5478 98.1848 98.0118 100.413C98.4759 102.642 99.605 104.677 101.25 106.25C94.375 120 83.75 130 68.125 138.125C57.5 143.75 46.25 146.25 35 144.375C25.625 143.125 18.75 139.375 14.375 132.5C11.2157 127.969 9.36888 122.653 9.03803 117.139C8.70719 111.625 9.90521 106.127 12.5 101.25C16.25 93.125 22.5 87.5 26.25 85L23.75 74.375C-5.62496 95.625 -2.49996 125 6.25004 138.125C13.125 148.75 26.875 155 41.875 155C45.625 155 50 154.375 53.75 153.125C80 148.125 99.375 133.125 110.625 110ZM146.875 84.375C131.25 66.25 108.125 56.25 82.5 56.25H79.375C77.5 53.125 73.125 50.625 69.375 50.625H68.75C65.7663 50.7079 62.9378 51.9726 60.8866 54.141C58.8354 56.3094 57.7297 59.2038 57.8125 62.1875C57.8954 65.1712 59.1602 67.9997 61.3286 70.0509C63.4969 72.1021 66.3913 73.2079 69.375 73.125C73.75 73.125 78.125 70 79.375 66.25H83.125C98.75 66.25 113.125 70.625 126.25 79.375C136.875 86.25 143.75 95 148.125 105.625C151.875 114.375 151.25 122.5 147.5 129.375C141.875 140.625 132.5 146.25 120 146.25C111.875 146.25 103.75 143.75 100 141.875L90.625 149.375C99.375 153.125 108.125 155.625 116.875 155.625C136.25 155.625 151.25 145 156.25 133.75C162.5 122.5 161.875 101.875 146.875 84.375ZM43.125 113.125C43.75 119.375 48.75 124.375 54.375 124.375H55C58.0666 124.292 60.9746 122.994 63.0844 120.767C65.1942 118.54 66.3329 115.567 66.25 112.5C66.1672 109.433 64.8695 106.525 62.6425 104.416C60.4155 102.306 57.4416 101.167 54.375 101.25L53.125 101.875C44.375 88.125 41.25 72.5 42.5 56.25C43.125 44.375 46.875 33.75 54.375 25C60 17.5 71.875 13.75 79.375 13.75C100.625 13.125 110 40 110.625 50.625L120.625 53.75C118.125 20.625 98.125 3.75 78.75 3.75C60 3.75 43.125 16.875 36.25 36.25C26.875 62.5 33.125 87.5 45 107.5C43.75 108.75 43.125 111.25 43.125 113.125Z" fill="#764ABC"/>
</svg>
