<svg width="160" height="160" viewBox="0 0 160 160" fill="none" xmlns="http://www.w3.org/2000/svg">
<path d="M136.5 31.6779L126.153 147.199L79.75 160L33.3467 147.199L23 31.6779H136.5Z" fill="#264DE4"/>
<path d="M117.426 139.695L126.28 40.8054H79.481V150.336L117.426 139.695Z" fill="#2965F1"/>
<path d="M46.4699 83.5954L47.7156 98.0106H79.4809V83.5954H46.4699ZM79.4809 54.7651H43.9785L45.2242 69.1803H79.4809V54.7651ZM79.4809 135.302V120.573L63.5982 116.5L62.664 104.905H48.3385L50.5184 127.468L79.4809 135.302Z" fill="#EBEBEB"/>
<path d="M49.3579 0H66.6028V7.05657H56.5694V14.1131H66.6028V21.1697H49.3579V0ZM70.0518 0H87.2967V6.13615H77.2633V7.36337H87.2967V21.4765H70.0518V15.0336H80.0852V13.8063H70.0518V0ZM90.7457 0H107.991V6.13615H97.9572V7.36337H107.991V21.4765H90.7457V15.0336H100.779V13.8063H90.7457V0Z" fill="black"/>
<path d="M97.185 98.0106L95.2881 116.5L79.481 120.573V135.302L108.882 127.468L109.198 124.961L112.36 87.3559L112.676 83.5954L115.521 54.7651H79.481V69.1803H99.7141L98.4495 83.5954H79.481V98.0106H97.185Z" fill="white"/>
</svg>
