<svg width="320" height="320" viewBox="0 0 320 320" fill="none" xmlns="http://www.w3.org/2000/svg">
<rect width="320" height="320" fill="white"/>
<path d="M278 63.3557L257.307 294.398L164.5 320L71.6934 294.398L51 63.3557H278Z" fill="#264DE4"/>
<path d="M239.852 279.391L257.559 81.6107H163.962V300.671L239.852 279.391Z" fill="#2965F1"/>
<path d="M97.9401 167.191L100.431 196.021H163.962V167.191H97.9401ZM163.962 109.53H92.9573L95.4487 138.361H163.962V109.53ZM163.962 270.604V241.147L132.197 232.999L130.328 209.81H101.677L106.037 254.935L163.962 270.604Z" fill="#EBEBEB"/>
<path d="M103.716 0H138.205V14.1131H118.139V28.2263H138.205V42.3394H103.716V0ZM145.103 0H179.593V12.2723H159.526V14.7267H179.593V42.953H145.103V30.0671H165.17V27.6127H145.103V0ZM186.491 0H220.981V12.2723H200.914V14.7267H220.981V42.953H186.491V30.0671H206.558V27.6127H186.491V0Z" fill="black"/>
<path d="M199.37 196.021L195.576 232.999L163.962 241.147V270.604L222.765 254.935L223.397 249.921L229.72 174.712L230.352 167.191L236.043 109.53H163.962V138.361H204.428L201.899 167.191H163.962V196.021H199.37Z" fill="white"/>
</svg>
