<svg width="320" height="320" viewBox="0 0 320 320" fill="none" xmlns="http://www.w3.org/2000/svg">
<rect width="320" height="320" fill="white"/>
<path d="M67.5 0H81.875V14.375H95.625V0H110V43.125H95.625V28.75H82.5V43.125H67.5V0ZM128.75 14.375H116.25V0H155.625V14.375H143.125V43.125H128.75V14.375ZM162.5 0H177.5L186.25 15L195.625 0H210.625V43.125H196.25V21.875L186.25 37.5L176.25 21.875V43.125H161.875L162.5 0ZM218.125 0H232.5V28.75H252.5V43.125H218.125" fill="black"/>
<path d="M67.5 294.375L46.875 63.125H273.125L252.5 294.375L160 320" fill="#E44D26"/>
<path d="M160 300.625V81.875H252.5L235 279.375" fill="#F16529"/>
<path d="M88.75 110H160V138.75H120L122.5 167.5H160V196.25H96.25L88.75 110ZM97.5 210H126.25L128.125 233.125L160 241.25V271.25L101.875 255" fill="#EBEBEB"/>
<path d="M231.25 110H160V138.75H228.125L231.25 110ZM225.625 167.5H160V196.25H195L191.25 233.125L160 241.25V270.625L218.125 255" fill="white"/>
</svg>
