<svg width="160" height="160" viewBox="0 0 160 160" fill="none" xmlns="http://www.w3.org/2000/svg">
<g clip-path="url(#clip0_23_36)">
<path d="M23.287 31.1707V32.6005L28.4519 90.6524L33.6167 146.988L56.2847 153.28L79.5266 159.857C95.3467 155.752 111.04 151.174 126.584 146.13L136.627 32.0286V31.1707H80.1005H23.287Z" fill="white"/>
<path d="M56.5716 153.852L33.6167 147.274L33.3297 145.559L23 31.7426C23 31.4567 28.7387 31.1707 80.1004 31.1707C134.045 31.1707 136.914 31.1707 136.914 32.0286L126.297 147.274L80.1004 160.143L56.5716 153.852ZM94.4473 131.26L108.794 126.97L110.803 106.667L112.811 85.2189V83.5031H79.5266V97.5156H97.6036L97.3166 98.3735C96.51 104.259 95.9357 110.173 95.595 116.104L87.2739 118.677L79.5266 120.679V127.828C79.5266 132.69 79.8135 134.978 80.1004 134.978L94.4473 131.26ZM112.811 74.6381L110.229 46.899C110.229 46.3271 108.794 46.0411 95.0211 46.0411H80.1004V60.9115L86.7 61.1975L95.595 61.7694H97.6036L97.8905 67.4888L98.7513 74.924V76.3539H112.811V74.6381Z" fill="#EAEBEC"/>
<path d="M56.2847 153.28L33.6167 146.988L28.4519 90.6524L23.287 32.6005V31.1707H136.627V32.0286L126.584 146.13C111.131 151.073 95.5342 155.555 79.8135 159.571L56.2847 153.28ZM94.4473 131.26C102.482 129.258 108.794 127.256 109.081 126.971L111.09 105.809L113.098 84.0751C113.385 83.5031 111.95 83.5031 88.9955 83.5031H64.6059L65.4667 72.6363L66.6145 61.4835L74.6487 61.1975L97.0298 62.0554L98.4644 75.7819C98.4644 76.6399 98.4644 76.6399 105.638 76.6399H113.098V74.924L111.664 59.7676L110.516 46.0411L81.8221 45.7551C59.1541 45.7551 53.1284 45.7551 53.1284 46.3271L52.8415 50.0447L48.5374 97.2297V98.0876H97.3167L97.0298 99.5174L96.1689 108.382L95.3081 115.818C95.0212 116.39 80.6744 120.107 79.8135 120.107L71.4924 118.105L64.032 116.104L63.7451 112.958L63.4581 107.239L63.1712 104.951H48.5374V106.381L50.546 127.256L79.5266 135.264L94.4473 131.26Z" fill="#F0BE25"/>
<path d="M56.2847 153.28L33.6167 146.988L28.4519 90.6524L23.287 32.6005V31.1707H136.627V32.0286L126.584 146.13C111.131 151.073 95.5342 155.555 79.8135 159.571L56.2847 153.28ZM98.7514 144.701C108.794 142.127 117.115 139.553 117.402 139.267L126.297 41.4656V40.3217H80.1005V45.7551H66.6145C56.2847 45.7551 53.1284 45.7551 53.1284 46.3271L52.8415 50.0447L48.5374 97.2297V98.0876H80.1005V108.954C80.1005 117.534 79.8135 120.107 79.5266 120.107L71.4924 118.105L64.032 116.104L63.7451 112.958L63.4581 107.239L63.1712 104.951H48.5374V106.381L50.8329 127.256L65.7536 131.546L80.1005 135.55V142.699L80.3874 149.848L98.7514 144.987V144.701ZM65.4667 72.6363L66.6145 61.7694L73.5009 61.1975H80.1005V83.5031H64.6059L65.4667 72.6363Z" fill="#E4A126"/>
<path d="M59.4409 17.7301V14.0125H69.7706V0H76.9441V21.4477H59.4409V17.7301ZM80.3873 18.588V15.7283H85.2652L89.8562 15.4424L85.2652 10.0089L80.3873 4.86148V0H100.186V5.71939L91.004 6.00536L100.76 16.3003V21.4477H80.3873V18.588Z" fill="#0E0E0F"/>
</g>
<defs>
<clipPath id="clip0_23_36">
<rect width="114" height="160" fill="white" transform="translate(23)"/>
</clipPath>
</defs>
</svg>
