<svg width="320" height="320" viewBox="0 0 320 320" fill="none" xmlns="http://www.w3.org/2000/svg">
<rect width="320" height="320" fill="white"/>
<g clip-path="url(#clip0_23_36)">
<path d="M37.5739 62.3414V65.2011L47.9036 181.305L58.2333 293.977L103.569 306.559L150.053 319.714C181.693 311.503 213.079 302.348 244.168 292.261L264.254 64.0572V62.3414H151.201H37.5739Z" fill="white"/>
<path d="M104.143 307.703L58.2333 294.549L57.6595 291.117L37 63.4852C37 62.9133 48.4775 62.3414 151.201 62.3414C259.089 62.3414 264.828 62.3414 264.828 64.0572L243.595 294.549L151.201 320.286L104.143 307.703ZM179.895 262.52L208.588 253.941L212.605 213.333L216.622 170.438V167.006H150.053V195.031H186.207L185.633 196.747C184.02 208.518 182.871 220.347 182.19 232.207L165.548 237.355L150.053 241.358V255.657C150.053 265.38 150.627 269.955 151.201 269.955L179.895 262.52ZM216.622 149.276L211.458 93.798C211.458 92.6541 208.588 92.0822 181.042 92.0822H151.201V121.823L164.4 122.395L182.19 123.539H186.207L186.781 134.978L188.503 149.848V152.708H216.622V149.276Z" fill="#EAEBEC"/>
<path d="M103.569 306.559L58.2333 293.977L47.9036 181.305L37.5739 65.2011V62.3414H264.254V64.0572L244.168 292.261C213.263 302.145 182.068 311.109 150.627 319.142L103.569 306.559ZM179.895 262.52C195.963 258.517 208.588 254.513 209.162 253.941L213.179 211.618L217.196 168.15C217.77 167.006 214.901 167.006 168.991 167.006H120.212L121.933 145.273L124.229 122.967L140.297 122.395L185.059 124.111L187.929 151.564C187.929 153.28 187.929 153.28 202.276 153.28H217.196V149.848L214.327 119.535L212.031 92.0822L154.644 91.5103C109.308 91.5103 97.2567 91.5103 97.2567 92.6541L96.6828 100.089L88.0747 194.459V196.175H185.633L185.059 199.035L183.338 216.765L181.616 231.635C181.042 232.779 152.349 240.214 150.627 240.214L133.985 236.211L119.064 232.207L118.49 225.916L117.916 214.477L117.342 209.902H88.0747V212.761L92.0919 254.513L150.053 270.527L179.895 262.52Z" fill="#F0BE25"/>
<path d="M103.569 306.559L58.2333 293.977L47.9036 181.305L37.5739 65.2011V62.3414H264.254V64.0572L244.168 292.261C213.263 302.145 182.068 311.109 150.627 319.142L103.569 306.559ZM188.503 289.401C208.588 284.254 225.231 279.106 225.804 278.534L243.595 82.9312V80.6434H151.201V91.5103H124.229C103.569 91.5103 97.2567 91.5103 97.2567 92.6541L96.6828 100.089L88.0747 194.459V196.175H151.201V217.909C151.201 235.067 150.627 240.214 150.053 240.214L133.985 236.211L119.064 232.207L118.49 225.916L117.916 214.477L117.342 209.902H88.0747V212.761L92.6657 254.513L122.507 263.092L151.201 271.099V285.398L151.775 299.696L188.503 289.973V289.401ZM121.933 145.273L124.229 123.539L138.002 122.395H151.201V167.006H120.212L121.933 145.273Z" fill="#E4A126"/>
<path d="M109.882 35.4602V28.025H130.541V0H144.888V42.8954H109.882V35.4602ZM151.775 37.176V31.4567H161.531L170.713 30.8847L161.531 20.0179L151.775 9.72297V0H191.372V11.4388L173.008 12.0107L192.52 32.6005V42.8954H151.775V37.176Z" fill="#0E0E0F"/>
</g>
<defs>
<clipPath id="clip0_23_36">
<rect width="228" height="320" fill="white" transform="translate(37)"/>
</clipPath>
</defs>
</svg>
