<svg viewBox="0 0 397.3 559.5" xmlns="http://www.w3.org/2000/svg"><path d="M1 109v5l18 203 18 197 79 22 81 23a2848 2848 0 0 0 164-48l35-399v-3H199z" fill="#fff"/><path d="m117 538-80-23-1-6L0 111c0-1 20-2 199-2 188 0 198 0 198 3l-37 403-161 45-82-22zm132-79 50-15 7-71 7-75v-6H197v49h63l-1 3a793 793 0 0 0-6 62l-29 9-27 7v25c0 17 1 25 2 25l50-13zm64-198-9-97c0-2-5-3-53-3h-52v52l23 1 31 2h7l1 20 3 26v5h49z" fill="#eaebec"/><path d="m116 536-79-22-18-197L1 114v-5h395v3l-35 399a2848 2848 0 0 1-163 47l-82-22zm133-77c28-7 50-14 51-15l7-74 7-76c1-2-4-2-84-2h-85l3-38 4-39 28-1 78 3 5 48c0 3 0 3 25 3h26v-6l-5-53-4-48-100-1c-79 0-100 0-100 2l-1 13-15 165v3h170l-1 5-3 31-3 26c-1 2-51 15-54 15l-29-7-26-7-1-11-1-20-1-8H89v5l7 73 101 28 52-14z" fill="#f0be25"/><path d="m116 536-79-22-18-197L1 114v-5h395v3l-35 399a2848 2848 0 0 1-163 47l-82-22zm148-30c35-9 64-18 65-19l31-342v-4H199v19h-47c-36 0-47 0-47 2l-1 13-15 165v3h110v38c0 30-1 39-2 39l-28-7-26-7-1-11-1-20-1-8H89v5l8 73 52 15 50 14v25l1 25 64-17zM148 254l4-38 24-2h23v78h-54z" fill="#e4a126"/><path d="M127 62V49h36V0h25v75h-61zm73 3V55h17l16-1-16-19-17-18V0h69v20l-32 1 34 36v18h-71z" fill="#0e0e0f"/></svg>