<svg width="160" height="160" viewBox="0 0 160 160" fill="none" xmlns="http://www.w3.org/2000/svg">
<g clip-path="url(#clip0_23_39)">
<path d="M80 93.5652C87.6839 93.5652 93.913 87.3361 93.913 79.6522C93.913 71.9682 87.6839 65.7391 80 65.7391C72.316 65.7391 66.0869 71.9682 66.0869 79.6522C66.0869 87.3361 72.316 93.5652 80 93.5652Z" fill="#61DAFB"/>
<path fill-rule="evenodd" clip-rule="evenodd" d="M11.8224 70.8579C8.38022 73.9653 6.95652 76.9418 6.95652 79.6488C6.95652 82.3558 8.38022 85.3323 11.8224 88.4396C15.2643 91.5466 20.44 94.5041 27.1317 97.0591C40.4911 102.16 59.1819 105.388 80 105.388C100.818 105.388 119.509 102.16 132.868 97.0591C139.56 94.5041 144.736 91.5466 148.178 88.4396C151.62 85.3323 153.043 82.3558 153.043 79.6488C153.043 76.9418 151.62 73.9653 148.178 70.8579C144.736 67.7509 139.56 64.7934 132.868 62.2384C119.509 57.1375 100.818 53.9096 80 53.9096C59.1819 53.9096 40.4911 57.1375 27.1317 62.2384C20.44 64.7934 15.2643 67.7509 11.8224 70.8579ZM24.6503 55.7395C38.9863 50.2658 58.5563 46.9531 80 46.9531C101.444 46.9531 121.014 50.2658 135.35 55.7395C142.506 58.4718 148.536 61.8101 152.839 65.6942C157.141 69.5779 160 74.2876 160 79.6488C160 85.0099 157.141 89.7197 152.839 93.6034C148.536 97.4874 142.506 100.826 135.35 103.558C121.014 109.032 101.444 112.344 80 112.344C58.5563 112.344 38.9863 109.032 24.6503 103.558C17.4942 100.826 11.4636 97.4874 7.16101 93.6034C2.8588 89.7197 0 85.0099 0 79.6488C0 74.2876 2.8588 69.5779 7.16101 65.6942C11.4636 61.8101 17.4942 58.4718 24.6503 55.7395Z" fill="#61DAFB"/>
<path fill-rule="evenodd" clip-rule="evenodd" d="M53.5294 16.2144C49.1172 14.787 45.8276 15.0423 43.4833 16.3958C41.139 17.7493 39.2731 20.4705 38.3032 25.0052C37.3333 29.5394 37.3599 35.5005 38.4931 42.5731C40.7553 56.6932 47.3053 74.4938 57.7143 92.5229C68.1234 110.552 80.2642 125.125 91.3614 134.144C96.9199 138.661 102.069 141.665 106.481 143.092C110.893 144.52 114.182 144.264 116.527 142.911C118.871 141.557 120.737 138.836 121.707 134.301C122.677 129.767 122.65 123.806 121.517 116.733C119.255 102.613 112.705 84.8127 102.296 66.7837C91.8867 48.7547 79.7459 34.182 68.6487 25.1628C63.0902 20.6451 57.941 17.6416 53.5294 16.2144ZM73.0362 19.7644C84.9446 29.4428 97.5985 44.7347 108.32 63.3055C119.042 81.8762 125.958 100.481 128.386 115.633C129.598 123.196 129.722 130.088 128.51 135.756C127.297 141.424 124.648 146.255 120.005 148.935C115.362 151.616 109.854 151.495 104.34 149.711C98.8245 147.927 92.9182 144.373 86.9739 139.542C75.0655 129.864 62.4116 114.572 51.6898 96.0011C40.9679 77.4303 34.0517 58.8259 31.6241 43.6736C30.4124 36.1102 30.2881 29.2183 31.5005 23.5502C32.7128 17.8825 35.3621 13.0518 40.0051 10.3713C44.648 7.69067 50.1561 7.8116 55.6706 9.59557C61.1856 11.3797 67.0919 14.9332 73.0362 19.7644Z" fill="#61DAFB"/>
<path fill-rule="evenodd" clip-rule="evenodd" d="M121.707 25.0049C120.737 20.4702 118.871 17.7489 116.527 16.3954C114.182 15.042 110.893 14.7867 106.481 16.214C102.069 17.6412 96.9199 20.6448 91.3614 25.1625C80.2642 34.1816 68.1234 48.7544 57.7143 66.7834C47.3053 84.8124 40.7553 102.613 38.4931 116.733C37.3599 123.806 37.3333 129.767 38.3032 134.301C39.2731 138.836 41.139 141.557 43.4833 142.91C45.8276 144.264 49.1172 144.519 53.5294 143.092C57.941 141.665 63.0902 138.661 68.6487 134.143C79.7459 125.124 91.8867 110.552 102.296 92.5225C112.705 74.4935 119.255 56.6928 121.517 42.5728C122.65 35.5002 122.677 29.5391 121.707 25.0049ZM128.386 43.6733C125.958 58.8255 119.042 77.43 108.32 96.0008C97.5985 114.572 84.9446 129.863 73.0362 139.542C67.0919 144.373 61.1856 147.927 55.6706 149.711C50.1561 151.495 44.648 151.616 40.0051 148.935C35.3621 146.254 32.7128 141.424 31.5005 135.756C30.2881 130.088 30.4124 123.196 31.6241 115.633C34.0517 100.48 40.9679 81.8759 51.6898 63.3051C62.4116 44.7344 75.0655 29.4425 86.9739 19.764C92.9182 14.9329 98.8245 11.3794 104.34 9.59524C109.854 7.81126 115.362 7.69034 120.005 10.3709C124.648 13.0515 127.297 17.8822 128.51 23.5498C129.722 29.218 129.598 36.1098 128.386 43.6733Z" fill="#61DAFB"/>
</g>
<defs>
<clipPath id="clip0_23_39">
<rect width="160" height="160" fill="white"/>
</clipPath>
</defs>
</svg>
