<svg width="320" height="320" viewBox="0 0 320 320" fill="none" xmlns="http://www.w3.org/2000/svg">
<rect width="320" height="320" fill="white"/>
<g clip-path="url(#clip0_23_39)">
<path d="M160 187.13C175.368 187.13 187.826 174.672 187.826 159.304C187.826 143.936 175.368 131.478 160 131.478C144.632 131.478 132.174 143.936 132.174 159.304C132.174 174.672 144.632 187.13 160 187.13Z" fill="#61DAFB"/>
<path fill-rule="evenodd" clip-rule="evenodd" d="M23.6449 141.716C16.7604 147.931 13.913 153.884 13.913 159.298C13.913 164.712 16.7604 170.665 23.6449 176.879C30.5285 183.093 40.88 189.008 54.2633 194.118C80.9822 204.32 118.364 210.776 160 210.776C201.636 210.776 239.018 204.32 265.737 194.118C279.12 189.008 289.471 183.093 296.355 176.879C303.24 170.665 306.087 164.712 306.087 159.298C306.087 153.884 303.24 147.931 296.355 141.716C289.471 135.502 279.12 129.587 265.737 124.477C239.018 114.275 201.636 107.819 160 107.819C118.364 107.819 80.9822 114.275 54.2633 124.477C40.88 129.587 30.5285 135.502 23.6449 141.716ZM49.3005 111.479C77.9725 100.532 117.113 93.9062 160 93.9062C202.887 93.9062 242.027 100.532 270.699 111.479C285.012 116.944 297.073 123.62 305.678 131.388C314.282 139.156 320 148.575 320 159.298C320 170.02 314.282 179.439 305.678 187.207C297.073 194.975 285.012 201.651 270.699 207.116C242.027 218.064 202.887 224.689 160 224.689C117.113 224.689 77.9725 218.064 49.3005 207.116C34.9884 201.651 22.9272 194.975 14.322 187.207C5.71759 179.439 0 170.02 0 159.298C0 148.575 5.71759 139.156 14.322 131.388C22.9272 123.62 34.9884 116.944 49.3005 111.479Z" fill="#61DAFB"/>
<path fill-rule="evenodd" clip-rule="evenodd" d="M107.059 32.4287C98.2344 29.574 91.6553 30.0846 86.9666 32.7916C82.278 35.4986 78.5462 40.941 76.6063 50.0104C74.6667 59.0789 74.7199 71.001 76.9861 85.1463C81.5106 113.386 94.6105 148.988 115.429 185.046C136.247 221.104 160.528 250.249 182.723 268.288C193.84 277.323 204.138 283.33 212.961 286.184C221.786 289.039 228.365 288.529 233.054 285.822C237.742 283.115 241.474 277.672 243.414 268.603C245.354 259.534 245.3 247.612 243.034 233.467C238.51 205.227 225.41 169.625 204.592 133.567C183.773 97.5094 159.492 68.3639 137.297 50.3256C126.18 41.2903 115.882 35.2831 107.059 32.4287ZM146.072 39.5288C169.889 58.8857 195.197 89.4694 216.641 126.611C238.084 163.752 251.917 200.961 256.772 231.266C259.195 246.393 259.444 260.176 257.019 271.513C254.595 282.848 249.296 292.509 240.01 297.871C230.724 303.232 219.708 302.99 208.679 299.422C197.649 295.854 185.836 288.747 173.948 279.084C150.131 259.727 124.823 229.144 103.38 192.002C81.9359 154.861 68.1035 117.652 63.2483 87.3473C60.8247 72.2204 60.5763 58.4367 63.001 47.1004C65.4256 35.765 70.7243 26.1037 80.0101 20.7425C89.2959 15.3814 100.312 15.6232 111.341 19.1912C122.371 22.7594 134.184 29.8664 146.072 39.5288Z" fill="#61DAFB"/>
<path fill-rule="evenodd" clip-rule="evenodd" d="M243.414 50.0097C241.474 40.9403 237.742 35.4979 233.054 32.7909C228.365 30.0839 221.786 29.5733 212.961 32.428C204.138 35.2825 193.84 41.2896 182.723 50.3249C160.528 68.3632 136.247 97.5088 115.429 133.567C94.6105 169.625 81.5106 205.226 76.9861 233.466C74.7199 247.612 74.6667 259.534 76.6063 268.602C78.5462 277.672 82.278 283.114 86.9666 285.821C91.6553 288.528 98.2344 289.039 107.059 286.184C115.882 283.329 126.18 277.322 137.297 268.287C159.492 250.249 183.773 221.103 204.592 185.045C225.41 148.987 238.51 113.386 243.034 85.1456C245.3 71.0003 245.354 59.0782 243.414 50.0097ZM256.772 87.3466C251.917 117.651 238.084 154.86 216.641 192.002C195.197 229.143 169.889 259.727 146.072 279.084C134.184 288.746 122.371 295.853 111.341 299.421C100.312 302.989 89.2959 303.231 80.0101 297.87C70.7243 292.509 65.4256 282.847 63.001 271.512C60.5763 260.176 60.8248 246.392 63.2483 231.265C68.1035 200.961 81.9359 163.752 103.38 126.61C124.823 89.4687 150.131 58.885 173.948 39.5281C185.836 29.8658 197.649 22.7587 208.679 19.1905C219.708 15.6225 230.724 15.3807 240.01 20.7418C249.296 26.103 254.595 35.7643 257.019 47.0997C259.444 58.436 259.195 72.2197 256.772 87.3466Z" fill="#61DAFB"/>
</g>
<defs>
<clipPath id="clip0_23_39">
<rect width="320" height="320" fill="white"/>
</clipPath>
</defs>
</svg>
