<svg width="320" height="320" viewBox="0 0 320 320" fill="none" xmlns="http://www.w3.org/2000/svg">
<g clip-path="url(#clip0_23_40)">
<rect width="320" height="320" fill="white"/>
<g clip-path="url(#clip1_23_40)">
<path d="M12.1879 156.731L14.8265 156.354L21.4859 155.726L12.4392 145.674C9.67498 142.659 8.16721 138.764 8.16721 134.617H0.502686C0.502686 140.648 2.76435 146.303 6.78508 150.826L12.1879 156.731ZM35.8097 171.432L33.7994 171.683L26.5118 172.437L35.6841 182.363C38.3227 185.379 39.9561 189.4 39.9561 193.42H47.495C47.495 187.515 45.2333 181.735 41.2126 177.338L35.8097 171.432Z" fill="black" stroke="white" stroke-width="0.00039265" stroke-miterlimit="10"/>
<path d="M24.3758 220.686C22.19 220.629 20.0881 219.833 18.4127 218.428C16.7374 217.023 15.5873 215.091 15.1501 212.949C14.7129 210.807 15.0143 208.579 16.0051 206.63C16.996 204.681 18.6178 203.125 20.6064 202.216V198.572C20.6064 194.677 17.7165 191.284 13.8214 190.907L12.6905 190.656C6.40815 189.902 1.50788 185.379 0.2514 179.222C-1.00508 173.065 1.75917 166.909 7.16203 163.768C9.67499 162.26 12.4392 161.38 15.3291 161.129L32.6686 159.496C34.4276 159.37 36.061 158.867 37.6945 157.988C40.71 156.103 41.3383 152.962 40.9613 150.7C40.5844 148.438 38.6997 145.8 35.0559 145.297L33.925 145.172C26.2605 144.166 20.3551 137.633 20.3551 129.843V125.696C18.3257 124.781 16.6742 123.194 15.6789 121.202C14.6835 119.211 14.4054 116.938 14.8913 114.765C15.3773 112.593 16.5976 110.654 18.3464 109.277C20.0952 107.899 22.2656 107.167 24.4915 107.203C26.7174 107.24 28.8626 108.043 30.5654 109.477C32.2681 110.911 33.4242 112.888 33.8387 115.076C34.2531 117.263 33.9006 119.526 32.8406 121.484C31.7805 123.441 30.0778 124.974 28.0196 125.822V129.843C28.0196 133.738 31.0351 137.005 34.8046 137.507L36.061 137.633C42.3434 138.387 47.1181 142.91 48.3745 149.192C49.631 155.475 46.9924 161.38 41.4639 164.647C38.9509 166.029 36.3123 166.909 33.4224 167.16L15.9574 168.793C14.1983 169.045 12.5649 169.547 11.0571 170.427C7.91592 172.186 7.28768 175.327 7.79027 177.589C8.29286 179.85 10.0519 182.615 13.5701 182.992L14.7009 183.243C22.4911 184.122 28.2709 190.782 28.2709 198.572V202.216C30.2678 203.13 31.8941 204.697 32.8824 206.659C33.8707 208.62 34.1622 210.859 33.709 213.008C33.2558 215.158 32.0848 217.088 30.3886 218.484C28.6924 219.879 26.5719 220.656 24.3758 220.686V220.686Z" fill="black"/>
<path d="M24.3757 107.352C26.629 107.294 28.8302 108.035 30.5897 109.443C32.3492 110.852 33.5537 112.838 33.99 115.05C34.4263 117.261 34.0662 119.555 32.9735 121.527C31.8808 123.498 30.126 125.02 28.0195 125.822V129.843C28.0195 133.738 30.9094 137.13 34.8044 137.633L36.0609 137.758C42.2177 138.512 47.1179 143.036 48.3744 149.192C49.6309 155.349 46.8666 161.38 41.4638 164.521C38.9508 166.029 36.1866 166.909 33.4223 167.16L15.9573 168.793C14.1982 168.919 12.5648 169.422 11.057 170.427C9.77479 171.106 8.74952 172.186 8.13715 173.501C7.52478 174.817 7.35881 176.296 7.66451 177.714C8.1671 179.976 9.92617 182.74 13.57 183.117L14.7008 183.243C22.491 184.248 28.2708 190.782 28.2708 198.572V202.341C30.2759 203.243 31.9086 204.809 32.8932 206.774C33.8778 208.74 34.1539 210.985 33.6751 213.131C33.1962 215.277 31.9916 217.191 30.2646 218.552C28.5377 219.913 26.3942 220.636 24.196 220.599C21.9978 220.562 19.8796 219.768 18.1989 218.351C16.5183 216.934 15.3782 214.98 14.971 212.819C14.5639 210.659 14.9147 208.424 15.9643 206.492C17.0138 204.56 18.6978 203.05 20.7319 202.216V198.572C20.7319 194.677 17.7163 191.284 13.8213 190.782L12.6904 190.656C6.40803 189.902 1.50776 185.379 0.251285 179.222C-1.00519 173.066 1.75906 166.909 7.28756 163.768C9.67487 162.385 12.4391 161.506 15.329 161.255L32.6684 159.621C34.4275 159.496 36.0609 158.867 37.6943 157.988C40.8355 156.229 41.4638 153.087 40.9612 150.7C40.4586 148.313 38.6995 145.674 35.0557 145.297L33.9249 145.046C26.2604 144.166 20.4806 137.507 20.4806 129.843V125.696C18.4363 124.833 16.7564 123.285 15.7297 121.317C14.703 119.35 14.3935 117.087 14.8544 114.916C15.3153 112.745 16.5178 110.803 18.2554 109.422C19.9929 108.042 22.157 107.31 24.3757 107.352V107.352ZM24.3757 107.226C22.1167 107.159 19.9055 107.885 18.1258 109.278C16.3461 110.671 15.1103 112.643 14.6327 114.852C14.155 117.061 14.4658 119.367 15.5111 121.371C16.5563 123.375 18.27 124.95 20.3549 125.822V129.843C20.3549 137.633 26.1347 144.292 33.9249 145.172L35.0557 145.423C38.5739 145.8 40.333 148.439 40.8355 150.7C41.3381 152.962 40.7099 156.103 37.5687 157.862C36.0609 158.742 34.4275 159.244 32.6684 159.496L15.329 161.129C12.4391 161.38 9.67487 162.26 7.16192 163.768C1.63341 166.909 -1.13084 172.94 0.125637 179.222C1.38212 185.505 6.28238 190.028 12.6904 190.782L13.8213 190.908C17.5907 191.41 20.4806 194.677 20.4806 198.572V202.09C18.4459 202.964 16.7725 204.509 15.7399 206.468C14.7072 208.427 14.3778 210.681 14.8066 212.854C15.2355 215.026 16.3966 216.986 18.0961 218.405C19.7956 219.825 21.9307 220.618 24.1448 220.654C26.359 220.689 28.5182 219.963 30.2619 218.598C32.0056 217.233 33.2283 215.312 33.7259 213.154C34.2234 210.996 33.9657 208.733 32.9958 206.742C32.0258 204.751 30.4024 203.154 28.3964 202.216V198.572C28.3964 190.782 22.491 184.123 14.7008 183.117L13.57 182.992C10.0518 182.615 8.29275 179.976 7.79016 177.714C7.28756 175.453 7.9158 172.312 11.057 170.427C12.5648 169.547 14.1982 169.045 15.9573 168.919L33.4223 167.286C36.3122 167.034 38.9508 166.155 41.4638 164.647C46.9923 161.506 49.7565 155.349 48.5001 149.192C47.2436 142.91 42.3433 138.387 36.0609 137.633L34.8044 137.507C31.035 137.005 28.1451 133.738 28.1451 129.843V125.822C30.2075 124.956 31.9062 123.403 32.9523 121.426C33.9985 119.449 34.3273 117.171 33.883 114.979C33.4387 112.787 32.2486 110.816 30.5152 109.403C28.7819 107.989 26.6123 107.22 24.3757 107.226V107.226ZM179.299 192.164H153.793C144.998 192.164 137.836 185.002 137.836 176.207V152.962C137.836 144.166 144.998 137.005 153.793 137.005H167.363C176.158 137.005 183.32 144.166 183.32 152.962V156.606C183.32 163.391 177.792 168.793 171.007 168.793H145.123V176.207C145.123 180.981 149.018 184.876 153.793 184.876H179.174V192.164H179.299ZM145.123 161.506H171.132C173.771 161.506 176.033 159.37 176.033 156.606V152.962C176.033 148.187 172.138 144.292 167.363 144.292H153.793C149.018 144.292 145.123 148.187 145.123 152.962V161.506ZM296.906 141.654H304.193V191.284H296.906V141.654ZM272.907 192.164H259.212C250.416 192.164 243.38 185.002 243.38 176.207V152.962C243.38 144.166 250.416 137.005 259.212 137.005H272.781C281.577 137.005 288.739 144.166 288.739 152.962V176.207C288.739 185.002 281.577 192.164 272.781 192.164H272.907ZM259.212 144.292C254.437 144.292 250.667 148.187 250.667 152.962V176.207C250.667 180.981 254.437 184.876 259.212 184.876H272.781C277.556 184.876 281.451 180.981 281.451 176.332V152.962C281.451 148.187 277.556 144.292 272.781 144.292H259.212ZM312.737 125.822H320.025V191.284H312.737V125.822ZM296.906 126.073H304.193V132.858H296.906V126.073ZM219.507 192.792H205.937C197.141 192.792 189.98 185.63 189.98 176.835V153.464C189.98 144.795 197.141 137.633 205.937 137.633H219.507C228.302 137.633 235.464 144.795 235.464 153.464V157.108H228.177V153.464C228.177 148.815 224.281 144.92 219.507 144.92H205.937C201.162 144.92 197.267 148.815 197.267 153.464V176.835C197.267 181.61 201.162 185.505 205.937 185.505H219.507C224.281 185.505 228.177 181.61 228.177 176.835V173.191H235.464V176.835C235.464 185.63 228.302 192.792 219.507 192.792ZM127.156 193.42H119.868V190.908C119.868 186.635 118.235 182.363 115.219 179.222L115.093 179.097L108.183 170.427L113.963 165.904L120.622 174.322C124.768 178.845 127.156 184.751 127.156 190.908V193.42Z" fill="black"/>
<path d="M89.2099 193.42H81.9224L82.048 147.056C82.1737 141.654 86.5713 137.381 91.9742 137.381L102.403 137.256L113.083 137.13C115.596 137.256 120.119 137.758 123.889 141.528C126.402 143.915 127.909 147.308 128.161 151.077C128.538 154.595 127.784 158.113 126.025 161.003C123.009 166.029 117.983 167.663 115.973 168.165L110.821 169.547L99.0105 172.437L89.3356 174.825L89.2099 193.42ZM91.8485 144.669C90.5921 144.669 89.4612 145.674 89.4612 147.056L89.3356 167.411L97.2514 165.401L109.062 162.385L114.214 161.129C115.345 160.878 118.109 159.872 119.742 157.234C121.753 153.967 121.25 149.192 118.737 146.679C117.182 145.292 115.167 144.531 113.083 144.543H102.529L91.9742 144.669H91.8485Z" fill="black"/>
</g>
</g>
<defs>
<clipPath id="clip0_23_40">
<rect width="320" height="320" fill="white"/>
</clipPath>
<clipPath id="clip1_23_40">
<rect width="320" height="320" fill="white" transform="translate(0 4)"/>
</clipPath>
</defs>
</svg>
