<svg width="320" height="320" viewBox="0 0 320 320" fill="none" xmlns="http://www.w3.org/2000/svg">
<rect width="320" height="320" fill="white"/>
<path d="M221.25 220C233.75 218.75 242.5 208.75 242.5 196.25C242.5 183.75 231.25 173.75 218.75 173.75C214.2 173.609 209.714 174.851 205.884 177.312C202.055 179.774 199.062 183.34 197.302 187.538C195.541 191.736 195.096 196.37 196.024 200.826C196.952 205.283 199.21 209.354 202.5 212.5C188.75 240 167.5 260 136.25 276.25C115 287.5 92.5001 292.5 70.0001 288.75C51.2501 286.25 37.5001 278.75 28.7501 265C22.4315 255.937 18.7378 245.306 18.0761 234.278C17.4144 223.25 19.8104 212.253 25.0001 202.5C32.5001 186.25 45.0001 175 52.5001 170L47.5001 148.75C-11.2499 191.25 -4.99993 250 12.5001 276.25C26.2501 297.5 53.7501 310 83.7501 310C91.2501 310 100 308.75 107.5 306.25C160 296.25 198.75 266.25 221.25 220ZM293.75 168.75C262.5 132.5 216.25 112.5 165 112.5H158.75C155 106.25 146.25 101.25 138.75 101.25H137.5C131.533 101.416 125.876 103.945 121.773 108.282C117.671 112.619 115.459 118.408 115.625 124.375C115.791 130.342 118.32 135.999 122.657 140.102C126.994 144.204 132.783 146.416 138.75 146.25C147.5 146.25 156.25 140 158.75 132.5H166.25C197.5 132.5 226.25 141.25 252.5 158.75C273.75 172.5 287.5 190 296.25 211.25C303.75 228.75 302.5 245 295 258.75C283.75 281.25 265 292.5 240 292.5C223.75 292.5 207.5 287.5 200 283.75L181.25 298.75C198.75 306.25 216.25 311.25 233.75 311.25C272.5 311.25 302.5 290 312.5 267.5C325 245 323.75 203.75 293.75 168.75ZM86.2501 226.25C87.5001 238.75 97.5001 248.75 108.75 248.75H110C116.133 248.584 121.949 245.989 126.169 241.535C130.388 237.081 132.666 231.133 132.5 225C132.334 218.867 129.739 213.051 125.285 208.831C120.831 204.612 114.883 202.334 108.75 202.5L106.25 203.75C88.7501 176.25 82.5001 145 85.0001 112.5C86.2501 88.75 93.7501 67.5 108.75 50C120 35 143.75 27.5 158.75 27.5C201.25 26.25 220 80 221.25 101.25L241.25 107.5C236.25 41.25 196.25 7.5 157.5 7.5C120 7.5 86.2501 33.75 72.5001 72.5C53.7501 125 66.2501 175 90.0001 215C87.5001 217.5 86.2501 222.5 86.2501 226.25Z" fill="#764ABC"/>
</svg>
